{"asset":{"version":"2.0","generator":"OPNassetBUILDER female-hero","extras":{"meshStats":{"vertices":2885,"triangles":4800,"materials":4,"bones":17}}},"scene":0,"scenes":[{"name":"female-hero","nodes":[0,17]}],"nodes":[{"name":"hips","translation":[0,0.9,0],"children":[1,11,14]},{"name":"spine","translation":[0,0.14,0],"children":[2]},{"name":"chest","translation":[0,0.16,0],"children":[3,5,8]},{"name":"neck","translation":[0,0.18,0],"children":[4]},{"name":"head","translation":[0,0.1,0]},{"name":"shoulder.L","translation":[-0.16,0.1,0],"children":[6]},{"name":"elbow.L","translation":[-0.04,-0.24,0.02],"children":[7]},{"name":"hand.L","translation":[0.02,-0.22,0.02]},{"name":"shoulder.R","translation":[0.16,0.1,0],"children":[9]},{"name":"elbow.R","translation":[0.04,-0.24,0.02],"children":[10]},{"name":"hand.R","translation":[-0.02,-0.22,0.02]},{"name":"thigh.L","translation":[-0.09,-0.06,0],"children":[12]},{"name":"knee.L","translation":[0,-0.38,0.02],"children":[13]},{"name":"ankle.L","translation":[0,-0.36,-0.02]},{"name":"thigh.R","translation":[0.09,-0.06,0],"children":[15]},{"name":"knee.R","translation":[0,-0.38,0.02],"children":[16]},{"name":"ankle.R","translation":[0,-0.36,-0.02]},{"name":"female-hero","mesh":0,"skin":0}],"skins":[{"name":"humanoid","joints":[0,1,2,3,4,5,6,7,8,9,10,11,12,13,14,15,16],"inverseBindMatrices":20,"skeleton":0}],"meshes":[{"name":"female-hero","primitives":[{"attributes":{"POSITION":0,"NORMAL":1,"JOINTS_0":2,"WEIGHTS_0":3},"indices":4,"material":0,"mode":4},{"attributes":{"POSITION":5,"NORMAL":6,"JOINTS_0":7,"WEIGHTS_0":8},"indices":9,"material":1,"mode":4},{"attributes":{"POSITION":10,"NORMAL":11,"JOINTS_0":12,"WEIGHTS_0":13},"indices":14,"material":2,"mode":4},{"attributes":{"POSITION":15,"NORMAL":16,"JOINTS_0":17,"WEIGHTS_0":18},"indices":19,"material":3,"mode":4}]}],"materials":[{"name":"skin","pbrMetallicRoughness":{"baseColorFactor":[0.79,0.58,0.48,1],"metallicFactor":0,"roughnessFactor":0.62}},{"name":"hair","pbrMetallicRoughness":{"baseColorFactor":[0.18,0.09,0.06,1],"metallicFactor":0,"roughnessFactor":0.62}},{"name":"cloth","pbrMetallicRoughness":{"baseColorFactor":[0.72,0.29,0.48,1],"metallicFactor":0,"roughnessFactor":0.62}},{"name":"eyes","pbrMetallicRoughness":{"baseColorFactor":[0.08,0.09,0.12,1],"metallicFactor":0,"roughnessFactor":0.2}}],"buffers":[{"byteLength":156828,"uri":"data:application/octet-stream;base64,"}],"bufferViews":[{"buffer":0,"byteOffset":0,"byteLength":26232,"target":34962},{"buffer":0,"byteOffset":26232,"byteLength":26232,"target":34962},{"buffer":0,"byteOffset":52464,"byteLength":8744,"target":34962},{"buffer":0,"byteOffset":61208,"byteLength":34976,"target":34962},{"buffer":0,"byteOffset":96184,"byteLength":21744,"target":34963},{"buffer":0,"byteOffset":117928,"byteLength":2652,"target":34962},{"buffer":0,"byteOffset":120580,"byteLength":2652,"target":34962},{"buffer":0,"byteOffset":123232,"byteLength":884,"target":34962},{"buffer":0,"byteOffset":124116,"byteLength":3536,"target":34962},{"buffer":0,"byteOffset":127652,"byteLength":2304,"target":34963},{"buffer":0,"byteOffset":129956,"byteLength":4224,"target":34962},{"buffer":0,"byteOffset":134180,"byteLength":4224,"target":34962},{"buffer":0,"byteOffset":138404,"byteLength":1408,"target":34962},{"buffer":0,"byteOffset":139812,"byteLength":5632,"target":34962},{"buffer":0,"byteOffset":145444,"byteLength":3600,"target":34963},{"buffer":0,"byteOffset":149044,"byteLength":1512,"target":34962},{"buffer":0,"byteOffset":150556,"byteLength":1512,"target":34962},{"buffer":0,"byteOffset":152068,"byteLength":504,"target":34962},{"buffer":0,"byteOffset":152572,"byteLength":2016,"target":34962},{"buffer":0,"byteOffset":154588,"byteLength":1152,"target":34963},{"buffer":0,"byteOffset":155740,"byteLength":1088}],"accessors":[{"bufferView":0,"componentType":5126,"count":2186,"type":"VEC3","min":[-0.22879125220812727,0.07000000000000009,-0.1083288528313429],"max":[0.22879125220812727,1.605,0.11]},{"bufferView":1,"componentType":5126,"count":2186,"type":"VEC3"},{"bufferView":2,"componentType":5121,"count":2186,"type":"VEC4"},{"bufferView":3,"componentType":5126,"count":2186,"type":"VEC4"},{"bufferView":4,"componentType":5123,"count":10872,"type":"SCALAR"},{"bufferView":5,"componentType":5126,"count":221,"type":"VEC3","min":[-0.12,1.38,-0.145],"max":[0.12,1.6400000000000001,0.105]},{"bufferView":6,"componentType":5126,"count":221,"type":"VEC3"},{"bufferView":7,"componentType":5121,"count":221,"type":"VEC4"},{"bufferView":8,"componentType":5126,"count":221,"type":"VEC4"},{"bufferView":9,"componentType":5123,"count":1152,"type":"SCALAR"},{"bufferView":10,"componentType":5126,"count":352,"type":"VEC3","min":[-0.16,0.62,-0.11],"max":[0.16,1.35,0.11]},{"bufferView":11,"componentType":5126,"count":352,"type":"VEC3"},{"bufferView":12,"componentType":5121,"count":352,"type":"VEC4"},{"bufferView":13,"componentType":5126,"count":352,"type":"VEC4"},{"bufferView":14,"componentType":5123,"count":1800,"type":"SCALAR"},{"bufferView":15,"componentType":5126,"count":126,"type":"VEC3","min":[-0.054,1.484,0.078],"max":[0.054,1.516,0.102]},{"bufferView":16,"componentType":5126,"count":126,"type":"VEC3"},{"bufferView":17,"componentType":5121,"count":126,"type":"VEC4"},{"bufferView":18,"componentType":5126,"count":126,"type":"VEC4"},{"bufferView":19,"componentType":5123,"count":576,"type":"SCALAR"},{"bufferView":20,"componentType":5126,"count":17,"type":"MAT4"}]}