{"asset":{"version":"2.0","generator":"OPNassetBUILDER male-hero","extras":{"meshStats":{"vertices":924,"triangles":1256,"materials":4,"bones":17}}},"scene":0,"scenes":[{"name":"male-hero","nodes":[0,17]}],"nodes":[{"name":"hips","translation":[0,0.9,0],"children":[1,11,14]},{"name":"spine","translation":[0,0.14,0],"children":[2]},{"name":"chest","translation":[0,0.16,0],"children":[3,5,8]},{"name":"neck","translation":[0,0.18,0],"children":[4]},{"name":"head","translation":[0,0.1,0]},{"name":"shoulder.L","translation":[-0.16,0.1,0],"children":[6]},{"name":"elbow.L","translation":[-0.04,-0.24,0.02],"children":[7]},{"name":"hand.L","translation":[0.02,-0.22,0.02]},{"name":"shoulder.R","translation":[0.16,0.1,0],"children":[9]},{"name":"elbow.R","translation":[0.04,-0.24,0.02],"children":[10]},{"name":"hand.R","translation":[-0.02,-0.22,0.02]},{"name":"thigh.L","translation":[-0.09,-0.06,0],"children":[12]},{"name":"knee.L","translation":[0,-0.38,0.02],"children":[13]},{"name":"ankle.L","translation":[0,-0.36,-0.02]},{"name":"thigh.R","translation":[0.09,-0.06,0],"children":[15]},{"name":"knee.R","translation":[0,-0.38,0.02],"children":[16]},{"name":"ankle.R","translation":[0,-0.36,-0.02]},{"name":"male-hero","mesh":0,"skin":0}],"skins":[{"name":"humanoid","joints":[0,1,2,3,4,5,6,7,8,9,10,11,12,13,14,15,16],"inverseBindMatrices":20,"skeleton":0}],"meshes":[{"name":"male-hero","primitives":[{"attributes":{"POSITION":0,"NORMAL":1,"JOINTS_0":2,"WEIGHTS_0":3},"indices":4,"material":0,"mode":4},{"attributes":{"POSITION":5,"NORMAL":6,"JOINTS_0":7,"WEIGHTS_0":8},"indices":9,"material":1,"mode":4},{"attributes":{"POSITION":10,"NORMAL":11,"JOINTS_0":12,"WEIGHTS_0":13},"indices":14,"material":2,"mode":4},{"attributes":{"POSITION":15,"NORMAL":16,"JOINTS_0":17,"WEIGHTS_0":18},"indices":19,"material":3,"mode":4}]}],"materials":[{"name":"skin","pbrMetallicRoughness":{"baseColorFactor":[0.79,0.58,0.48,1],"metallicFactor":0,"roughnessFactor":0.62}},{"name":"hair","pbrMetallicRoughness":{"baseColorFactor":[0.18,0.09,0.06,1],"metallicFactor":0,"roughnessFactor":0.62}},{"name":"cloth","pbrMetallicRoughness":{"baseColorFactor":[0.2,0.32,0.55,1],"metallicFactor":0,"roughnessFactor":0.62}},{"name":"eyes","pbrMetallicRoughness":{"baseColorFactor":[0.08,0.09,0.12,1],"metallicFactor":0,"roughnessFactor":0.2}}],"buffers":[{"byteLength":49280,"uri":"data:application/octet-stream;base64,"}],"bufferViews":[{"buffer":0,"byteOffset":0,"byteLength":8316,"target":34962},{"buffer":0,"byteOffset":8316,"byteLength":8316,"target":34962},{"buffer":0,"byteOffset":16632,"byteLength":2772,"target":34962},{"buffer":0,"byteOffset":19404,"byteLength":11088,"target":34962},{"buffer":0,"byteOffset":30492,"byteLength":5640,"target":34963},{"buffer":0,"byteOffset":36132,"byteLength":1260,"target":34962},{"buffer":0,"byteOffset":37392,"byteLength":1260,"target":34962},{"buffer":0,"byteOffset":38652,"byteLength":420,"target":34962},{"buffer":0,"byteOffset":39072,"byteLength":1680,"target":34962},{"buffer":0,"byteOffset":40752,"byteLength":1008,"target":34963},{"buffer":0,"byteOffset":41760,"byteLength":672,"target":34962},{"buffer":0,"byteOffset":42432,"byteLength":672,"target":34962},{"buffer":0,"byteOffset":43104,"byteLength":224,"target":34962},{"buffer":0,"byteOffset":43328,"byteLength":896,"target":34962},{"buffer":0,"byteOffset":44224,"byteLength":312,"target":34963},{"buffer":0,"byteOffset":44536,"byteLength":840,"target":34962},{"buffer":0,"byteOffset":45376,"byteLength":840,"target":34962},{"buffer":0,"byteOffset":46216,"byteLength":280,"target":34962},{"buffer":0,"byteOffset":46496,"byteLength":1120,"target":34962},{"buffer":0,"byteOffset":47616,"byteLength":576,"target":34963},{"buffer":0,"byteOffset":48192,"byteLength":1088}],"accessors":[{"bufferView":0,"componentType":5126,"count":693,"type":"VEC3","min":[-0.23748646288100358,0.07200000000000009,-0.16],"max":[0.23748646288100358,1.59,0.16]},{"bufferView":1,"componentType":5126,"count":693,"type":"VEC3"},{"bufferView":2,"componentType":5121,"count":693,"type":"VEC4"},{"bufferView":3,"componentType":5126,"count":693,"type":"VEC4"},{"bufferView":4,"componentType":5123,"count":2820,"type":"SCALAR"},{"bufferView":5,"componentType":5126,"count":105,"type":"VEC3","min":[-0.09716159641463343,1.4812278641951724,-0.10665872687425665],"max":[0.09716159641463343,1.62,0.08665872687425666]},{"bufferView":6,"componentType":5126,"count":105,"type":"VEC3"},{"bufferView":7,"componentType":5121,"count":105,"type":"VEC4"},{"bufferView":8,"componentType":5126,"count":105,"type":"VEC4"},{"bufferView":9,"componentType":5123,"count":504,"type":"SCALAR"},{"bufferView":10,"componentType":5126,"count":56,"type":"VEC3","min":[-0.16768760089527368,0.9,-0.17200000000000001],"max":[0.16768760089527368,1.2,0.17200000000000001]},{"bufferView":11,"componentType":5126,"count":56,"type":"VEC3"},{"bufferView":12,"componentType":5121,"count":56,"type":"VEC4"},{"bufferView":13,"componentType":5126,"count":56,"type":"VEC4"},{"bufferView":14,"componentType":5123,"count":156,"type":"SCALAR"},{"bufferView":15,"componentType":5126,"count":70,"type":"VEC3","min":[-0.044,1.4829999999999999,0.07507179676972449],"max":[0.044,1.507,0.08892820323027552]},{"bufferView":16,"componentType":5126,"count":70,"type":"VEC3"},{"bufferView":17,"componentType":5121,"count":70,"type":"VEC4"},{"bufferView":18,"componentType":5126,"count":70,"type":"VEC4"},{"bufferView":19,"componentType":5123,"count":288,"type":"SCALAR"},{"bufferView":20,"componentType":5126,"count":17,"type":"MAT4"}]}